<svg width="800" height="600" viewBox="0 0 800 600" xmlns="http://www.w3.org/2000/svg">
  <defs>
    <linearGradient id="grad1" x1="0%" y1="0%" x2="100%" y2="100%">
      <stop offset="0%" style="stop-color:#3B82F6;stop-opacity:0.8"/>
      <stop offset="100%" style="stop-color:#8B5CF6;stop-opacity:0.8"/>
    </linearGradient>
    <linearGradient id="grad2" x1="100%" y1="0%" x2="0%" y2="100%">
      <stop offset="0%" style="stop-color:#60A5FA;stop-opacity:0.6"/>
      <stop offset="100%" style="stop-color:#A78BFA;stop-opacity:0.6"/>
    </linearGradient>
  </defs>
  
  <!-- Background Shapes -->
  <circle cx="400" cy="300" r="250" fill="url(#grad1)" opacity="0.1"/>
  <circle cx="400" cy="300" r="200" fill="url(#grad2)" opacity="0.15"/>
  
  <!-- Abstract Code Elements -->
  <g transform="translate(250,150)" opacity="0.8">
    <!-- Code Window Frame -->
    <rect x="0" y="0" width="300" height="200" rx="10" fill="#1E293B"/>
    <rect x="0" y="0" width="300" height="30" rx="10" fill="#334155"/>
    <circle cx="20" cy="15" r="5" fill="#EF4444"/>
    <circle cx="40" cy="15" r="5" fill="#F59E0B"/>
    <circle cx="60" cy="15" r="5" fill="#10B981"/>
    
    <!-- Code Lines -->
    <rect x="20" y="50" width="200" height="6" rx="3" fill="#60A5FA" opacity="0.6"/>
    <rect x="20" y="70" width="150" height="6" rx="3" fill="#818CF8" opacity="0.6"/>
    <rect x="20" y="90" width="180" height="6" rx="3" fill="#60A5FA" opacity="0.6"/>
    <rect x="20" y="110" width="120" height="6" rx="3" fill="#818CF8" opacity="0.6"/>
    <rect x="20" y="130" width="160" height="6" rx="3" fill="#60A5FA" opacity="0.6"/>
  </g>
  
  <!-- Floating Elements -->
  <g transform="translate(150,250)" opacity="0.8">
    <rect x="0" y="0" width="40" height="40" rx="8" fill="#3B82F6" transform="rotate(-15)"/>
    <rect x="60" y="-30" width="30" height="30" rx="6" fill="#8B5CF6" transform="rotate(15)"/>
    <rect x="-30" y="60" width="25" height="25" rx="5" fill="#60A5FA" transform="rotate(-30)"/>
  </g>
  
  <g transform="translate(550,250)" opacity="0.8">
    <rect x="0" y="0" width="40" height="40" rx="8" fill="#3B82F6" transform="rotate(15)"/>
    <rect x="-60" y="-30" width="30" height="30" rx="6" fill="#8B5CF6" transform="rotate(-15)"/>
    <rect x="30" y="60" width="25" height="25" rx="5" fill="#60A5FA" transform="rotate(30)"/>
  </g>
  
  <!-- Connection Lines -->
  <g stroke="#60A5FA" stroke-width="2" opacity="0.3">
    <path d="M200,200 C250,150 300,250 350,200" fill="none"/>
    <path d="M450,200 C500,150 550,250 600,200" fill="none"/>
    <path d="M300,400 C350,350 400,450 450,400" fill="none"/>
  </g>
</svg>